<?xml version="1.0" encoding="utf-8"?>
<!-- Generator: Adobe Illustrator 21.1.0, SVG Export Plug-In . SVG Version: 6.00 Build 0)  -->
<svg version="1.1" id="Capa_1" xmlns="http://www.w3.org/2000/svg" xmlns:xlink="http://www.w3.org/1999/xlink" x="0px" y="0px"
	 viewBox="0 0 297 297" style="enable-background:new 0 0 297 297;" xml:space="preserve">
<style type="text/css">
	.st0{fill:#FC3846;}
</style>
<g>
	<path class="st0" d="M82.5,237.5c-2.6,0-5.2,1.1-7.1,2.9c-1.9,1.9-2.9,4.4-2.9,7.1c0,2.6,1.1,5.2,2.9,7.1c1.9,1.9,4.4,2.9,7.1,2.9
		s5.2-1.1,7.1-2.9c1.9-1.9,2.9-4.4,2.9-7.1s-1.1-5.2-2.9-7.1C87.7,238.6,85.1,237.5,82.5,237.5z"/>
	<path class="st0" d="M148.5,237.5c-2.6,0-5.2,1.1-7.1,2.9c-1.9,1.9-2.9,4.4-2.9,7.1s1.1,5.2,2.9,7.1c1.9,1.9,4.4,2.9,7.1,2.9
		s5.2-1.1,7.1-2.9c1.9-1.9,2.9-4.4,2.9-7.1s-1.1-5.2-2.9-7.1C153.7,238.6,151.1,237.5,148.5,237.5z"/>
	<path class="st0" d="M214.5,237.5c-2.6,0-5.2,1.1-7.1,2.9c-1.9,1.9-2.9,4.4-2.9,7.1s1.1,5.2,2.9,7.1c1.9,1.9,4.4,2.9,7.1,2.9
		s5.2-1.1,7.1-2.9c1.9-1.9,2.9-4.4,2.9-7.1s-1.1-5.2-2.9-7.1C219.7,238.6,217.1,237.5,214.5,237.5z"/>
	<path class="st0" d="M287,270.5h-21.3V181c0-14.3-11.7-26-26-26H175V82.5c0-5.5-4.5-10-10-10h-3.4c8-4.6,13.4-13.2,13.4-23
		c0-11-12.8-30.7-18.3-38.7c-1.9-2.7-4.9-4.3-8.2-4.3s-6.4,1.6-8.2,4.3c-5.5,8-18.3,27.6-18.3,38.7c0,9.8,5.4,18.4,13.4,23H132
		c-5.5,0-10,4.5-10,10V155H57.3c-14.3,0-26,11.7-26,26v89.5H10c-5.5,0-10,4.5-10,10s4.5,10,10,10h277c5.5,0,10-4.5,10-10
		C297,275,292.5,270.5,287,270.5z M148.5,35.3c3.7,6.5,6.3,12,6.5,14.3c0,3.6-2.9,6.4-6.5,6.4c-3.6,0-6.5-2.9-6.5-6.4
		C142.2,47.3,144.8,41.7,148.5,35.3z M142,92.5h13V155h-13V92.5z M57.3,175h182.5c3.3,0,6,2.7,6,6v28.4c-4.2-0.3-6.3-1.5-9.6-3.5
		c-4.5-2.7-10.6-6.4-21.7-6.4c-11,0-17.2,3.7-21.7,6.4c-3.7,2.2-5.9,3.6-11.3,3.6c-5.5,0-7.7-1.3-11.3-3.6
		c-4.5-2.7-10.6-6.4-21.7-6.4s-17.2,3.7-21.7,6.4c-3.7,2.2-5.9,3.6-11.3,3.6s-7.7-1.3-11.3-3.6c-4.5-2.7-10.6-6.4-21.7-6.4
		c-11,0-17.2,3.7-21.7,6.4c-3.2,2-5.3,3.2-9.6,3.5V181C51.3,177.7,54,175,57.3,175z M51.3,229.5c10-0.4,15.7-3.8,19.9-6.4
		c3.7-2.2,5.9-3.6,11.3-3.6c5.5,0,7.7,1.3,11.3,3.6c4.5,2.7,10.6,6.4,21.7,6.4s17.2-3.7,21.7-6.4c3.7-2.2,5.9-3.6,11.3-3.6
		c5.5,0,7.7,1.3,11.3,3.6c4.5,2.7,10.6,6.4,21.7,6.4c11,0,17.2-3.7,21.7-6.4c3.7-2.2,5.9-3.6,11.3-3.6c5.5,0,7.7,1.3,11.3,3.6
		c4.2,2.6,10,6,19.9,6.4v41H51.3V229.5z"/>
</g>
</svg>
