<?xml version="1.0" encoding="iso-8859-1"?>
<!-- Generator: Adobe Illustrator 16.0.0, SVG Export Plug-In . SVG Version: 6.00 Build 0)  -->
<!DOCTYPE svg PUBLIC "-//W3C//DTD SVG 1.1//EN" "http://www.w3.org/Graphics/SVG/1.1/DTD/svg11.dtd">
<svg version="1.1" id="Capa_1" xmlns="http://www.w3.org/2000/svg" xmlns:xlink="http://www.w3.org/1999/xlink" x="0px" y="0px"
	 width="35.786px" height="35.786px" viewBox="0 0 35.786 35.786" style="enable-background:new 0 0 35.786 35.786;"
	 xml:space="preserve">
<g>
	<g>
		<g>
			<polygon points="20.349,35.786 15.437,35.786 16.437,29.515 19.349,29.515 			"/>
		</g>
		<g>
			<g>
				<path d="M7.092,28.941c-1.994,0-3.146-0.169-3.575-0.567c-0.215-0.198-0.26-0.42-0.26-0.57c0-1.243,2.834-1.569,13.298-2.122
					c3.979-0.21,9.206-0.486,11.115-0.934c-1.805-0.169-6.362,0.166-9.844,0.424c-7.158,0.527-10.372,0.689-11.096,0.017
					c-0.147-0.137-0.229-0.317-0.229-0.507c0-1.226,2.688-1.554,12.616-2.122c4.222-0.241,9.829-0.562,11.487-1.104
					c-1.789-0.3-7.729,0.143-12.195,0.475c-9.054,0.673-13.419,0.896-14.35,0.031c-0.166-0.153-0.257-0.354-0.257-0.565
					c0-1.21,2.684-1.536,12.594-2.104c3.794-0.218,8.764-0.503,10.658-0.944c-1.771-0.136-5.986,0.168-9.218,0.399
					c-6.959,0.5-9.859,0.641-10.546,0.002c-0.143-0.133-0.222-0.309-0.222-0.494c0-1.158,2.444-1.57,11.472-2.481
					c3.473-0.351,8.039-0.812,9.676-1.304c-1.726-0.187-6.419,0.168-9.984,0.439c-7.677,0.583-11.126,0.761-11.931,0.014
					c-0.156-0.145-0.242-0.335-0.242-0.536c0-0.933,1.326-1.24,9.458-2.19c2.987-0.349,6.849-0.8,8.607-1.253
					c-1.469-0.036-4.188,0.162-6.314,0.315c-5.574,0.4-7.271,0.444-7.784-0.032c-0.132-0.123-0.204-0.285-0.204-0.458
					c0-0.863,1.117-1.141,7.968-1.981c2.087-0.256,4.723-0.58,6.248-0.9c-1.543-0.008-4.189,0.176-6.276,0.324
					c-5.685,0.404-7.411,0.449-7.927-0.03C9.704,8.06,9.632,7.897,9.632,7.725c0-0.758,0.907-1.06,6.474-2.155
					c1.185-0.233,2.602-0.512,3.731-0.775c-0.618,0.035-1.281,0.083-1.862,0.124c-3.44,0.245-4.35,0.261-4.716-0.081
					c-0.102-0.095-0.187-0.283-0.187-0.421c0-0.417,0.332-0.731,2.535-2.396c0.521-0.393,1.163-0.879,1.602-1.24
					c-0.05-0.08-0.077-0.173-0.077-0.268c0-0.309,0.293-0.553,0.596-0.491c0.033-0.002,0.075-0.005,0.117-0.009
					c0.273-0.021,0.469-0.035,0.645,0.129c0.103,0.094,0.162,0.231,0.162,0.37c0,0.406-0.297,0.686-2.441,2.306
					c-0.51,0.385-1.186,0.896-1.653,1.282c0.866-0.002,2.299-0.104,3.347-0.179c3.367-0.241,4.264-0.257,4.623,0.077
					c0.102,0.095,0.185,0.28,0.185,0.418c0,0.75-0.897,1.049-6.412,2.134c-1.497,0.294-3.362,0.662-4.566,0.979
					c0.004,0,0.007,0,0.011,0c1.499,0,3.979-0.176,5.947-0.316c5.814-0.413,7.711-0.461,8.251,0.043
					c0.135,0.125,0.209,0.292,0.209,0.467c0,0.889-1.231,1.196-8.238,2.055c-1.855,0.229-4.162,0.511-5.664,0.792
					c1.485-0.021,3.702-0.182,5.49-0.311c5.64-0.406,7.482-0.453,8.015,0.042c0.134,0.125,0.208,0.29,0.208,0.465
					c0,1.071-2.076,1.457-10.327,2.421c-2.823,0.33-6.507,0.76-8.017,1.164c1.822,0.219,6.774-0.156,10.539-0.442
					c7.312-0.555,10.593-0.727,11.336-0.039c0.148,0.139,0.23,0.321,0.23,0.514c0,1.114-2.228,1.487-11.082,2.382
					c-3.61,0.364-8.36,0.844-10.047,1.371c1.673,0.151,5.925-0.156,9.17-0.39c6.917-0.497,10.022-0.647,10.724,0.005
					c0.145,0.135,0.225,0.312,0.225,0.5c0,1.177-2.465,1.475-12.26,2.036c-4.189,0.24-9.771,0.562-11.339,1.088
					c1.752,0.407,8.311-0.08,13.221-0.444c8.677-0.646,12.569-0.848,13.405-0.07c0.154,0.146,0.24,0.333,0.24,0.533
					c0,1.251-2.729,1.585-12.806,2.162c-4.031,0.229-9.348,0.535-11.152,1.031c1.72,0.177,6.266-0.159,9.729-0.414
					c7.283-0.537,10.554-0.7,11.3-0.009c0.148,0.14,0.23,0.322,0.23,0.516c0,1.173-2.549,1.464-12.675,1.999
					c-4.479,0.235-10.46,0.552-12.057,1.107c1.736,0.425,8.462-0.087,13.491-0.469c9.198-0.699,13.322-0.917,14.233-0.074
					c0.162,0.151,0.253,0.351,0.253,0.559c0,0.275-0.224,0.5-0.5,0.5c-0.226,0-0.416-0.149-0.479-0.354
					c-1-0.58-8.171-0.032-13.432,0.367C13.093,28.698,9.486,28.941,7.092,28.941z"/>
			</g>
		</g>
	</g>
</g>
<g>
</g>
<g>
</g>
<g>
</g>
<g>
</g>
<g>
</g>
<g>
</g>
<g>
</g>
<g>
</g>
<g>
</g>
<g>
</g>
<g>
</g>
<g>
</g>
<g>
</g>
<g>
</g>
<g>
</g>
</svg>
