<?xml version="1.0" encoding="utf-8"?>
<!-- Generator: Adobe Illustrator 21.1.0, SVG Export Plug-In . SVG Version: 6.00 Build 0)  -->
<svg version="1.1" id="Capa_1" xmlns="http://www.w3.org/2000/svg" xmlns:xlink="http://www.w3.org/1999/xlink" x="0px" y="0px"
	 viewBox="0 0 124 124" style="enable-background:new 0 0 124 124;" xml:space="preserve">
<style type="text/css">
	.st0{fill:#FC3846;}
</style>
<g>
	<path class="st0" d="M106.1,88.7L35.1,18.2c-4.7-4.7-12.3-4.6-17,0.1s-4.6,12.3,0.1,17l70.9,70.5c4.7,4.7,12.3,4.6,17-0.1
		C110.8,101,110.8,93.4,106.1,88.7z"/>
	<path class="st0" d="M88.9,18.1L18.4,89c-4.7,4.7-4.6,12.3,0.1,17c4.7,4.7,12.3,4.6,17-0.1L105.9,35c4.7-4.7,4.6-12.3-0.1-17
		C101.2,13.4,93.5,13.4,88.9,18.1z"/>
</g>
</svg>
