<?xml version="1.0" encoding="iso-8859-1"?>
<!-- Generator: Adobe Illustrator 19.0.0, SVG Export Plug-In . SVG Version: 6.00 Build 0)  -->
<svg version="1.1" id="Layer_1" xmlns="http://www.w3.org/2000/svg" xmlns:xlink="http://www.w3.org/1999/xlink" x="0px" y="0px"
	 viewBox="0 0 512.001 512.001" style="enable-background:new 0 0 512.001 512.001;" xml:space="preserve">
<g>
	<g>
		<circle cx="191.58" cy="345.356" r="13.785"/>
	</g>
</g>
<g>
	<g>
		<path d="M309.53,398.054c-1.994-3.869-6.746-5.388-10.615-3.394c-7.958,4.102-18.878,8.095-25.713,3.824
			c-6.585-4.113-8.725-14.949-9.21-21.609c5.782-1.929,9.754-5.875,9.754-10.443c0-6.466-7.945-11.707-17.745-11.707
			c-9.8,0-17.745,5.241-17.745,11.707c0,4.567,3.973,8.513,9.754,10.442c-0.49,6.547-2.632,17.477-9.185,21.594
			c-6.834,4.294-17.769,0.299-25.738-3.809c-3.869-1.994-8.621-0.475-10.615,3.394c-1.996,3.869-0.476,8.621,3.392,10.615
			c16.895,8.71,30.804,9.767,41.344,3.146c3.412-2.143,6.361-5.081,8.792-8.723c2.431,3.642,5.382,6.579,8.792,8.723
			c4.547,2.857,9.722,4.285,15.494,4.285c7.605,0,16.244-2.479,25.85-7.43C310.005,406.674,311.524,401.922,309.53,398.054z"/>
	</g>
</g>
<g>
	<g>
		<circle cx="320.424" cy="345.356" r="13.785"/>
	</g>
</g>
<g>
	<g>
		<path d="M383.815,303.661c-1.051-19.197-6.357-37.278-14.979-53.323C452.665,157.21,491.942,88.01,485.582,44.613
			c-2.343-15.995-10.645-28.398-24.674-36.861C452.382,2.608,443.425,0,434.287,0C389.1,0,342.039,63.451,294.368,188.609
			c-12.118-3.816-25.006-5.883-38.368-5.883s-26.25,2.067-38.368,5.883C169.961,63.451,122.9,0,77.713,0
			c-9.138,0-18.094,2.608-26.62,7.752c-14.029,8.464-22.33,20.866-24.674,36.862c-6.36,43.396,32.917,112.597,116.745,205.725
			c-8.621,16.042-13.926,34.117-14.978,53.31c-11.979,2.504-22.864,10.869-31.215,24.172c-9.306,14.821-14.431,34.161-14.431,54.454
			c0,33.625,13.7,64.662,38.575,87.393c30.741,28.09,76.122,42.334,134.884,42.334c56.806,0,101.184-13.357,131.899-39.701
			c3.304-2.833,3.685-7.808,0.852-11.112c-2.834-3.303-7.809-3.685-11.111-0.851c-27.779,23.823-68.704,35.903-121.639,35.903
			c-54.703,0-96.508-12.855-124.254-38.208c-29.101-26.592-33.446-58.88-33.446-75.758c0-34.507,17.206-63.66,37.572-63.66
			c4.352,0,7.88-3.528,7.88-7.88c0.003-61.359,51.211-112.247,112.248-112.247c61.16,0,112.247,51.161,112.247,112.247
			c0,4.352,3.528,7.88,7.88,7.88c10.303,0,20.378,7.716,27.641,21.17c12.607,23.352,15.895,64.151-6.676,98.545
			c-2.387,3.638-1.374,8.523,2.265,10.911c3.637,2.387,8.524,1.374,10.911-2.265c26.256-40.011,22.619-86.426,7.367-114.678
			C409.147,316.571,397.105,306.481,383.815,303.661z M195.113,198.134c-14.353-34.072-28.641-62.602-42.524-84.872
			c-2.303-3.693-7.163-4.822-10.856-2.518c-3.693,2.302-4.82,7.162-2.518,10.856c13.76,22.073,27.996,50.639,42.356,84.98
			c-4.806,3.442-9.374,7.216-13.669,11.294c-23.557-27.639-42.345-52.709-55.904-74.603c-13.14-21.216-26.518-49.053-24.661-63.551
			c0.313-2.444,0.617-3.114,3.129-4.653c2.156-1.321,3.028-1.244,3.406-1.209c0.411,0.037,10.257,1.153,27.941,22.957
			c2.742,3.38,7.706,3.898,11.083,1.157c3.38-2.741,3.898-7.705,1.157-11.084c-19.216-23.693-32.54-28.169-38.772-28.726
			c-4.393-0.395-8.543,0.706-13.05,3.468c-6.44,3.946-9.587,8.757-10.527,16.089c-2.808,21.935,15.645,55.685,26.894,73.85
			c14.204,22.935,33.875,49.129,58.505,77.925c-1.839,2.233-3.607,4.525-5.294,6.882C54.352,127.373,38.155,73.218,42.012,46.899
			c1.651-11.265,7.284-19.656,17.223-25.652c6.118-3.692,12.163-5.487,18.478-5.487c17.611,0,36.916,14.207,57.378,42.227
			c22.103,30.267,44.906,76.08,67.821,136.247C200.266,195.444,197.666,196.748,195.113,198.134z M330.429,206.579
			c15.673-37.484,31.16-68.017,46.071-90.818c26.216-40.088,41.013-41.85,41.632-41.906c0.098-0.008,0.203-0.017,0.316-0.017
			c0.946,0,2.341,0.768,3.088,1.226c2.512,1.539,2.816,2.208,3.129,4.653c1.857,14.498-11.522,42.334-24.661,63.55
			c-13.559,21.894-32.347,46.964-55.904,74.603C339.804,213.795,335.236,210.021,330.429,206.579z M360.193,236.374
			c-1.687-2.357-3.456-4.65-5.294-6.883c24.63-28.796,44.301-54.99,58.505-77.925c26.209-42.321,28.1-64.435,26.895-73.85
			c-0.939-7.333-4.087-12.145-10.527-16.089c-3.897-2.388-7.601-3.549-11.322-3.549c-0.566,0-1.132,0.026-1.727,0.08
			c-8.483,0.762-26.704,8.136-53.411,48.977c-15.115,23.113-30.715,53.7-46.425,90.998c-2.553-1.386-5.152-2.69-7.798-3.899
			c22.917-60.171,45.72-105.986,67.822-136.251c20.46-28.016,39.765-42.222,57.377-42.222c6.227,0,12.444,1.846,18.478,5.487
			c9.938,5.996,15.572,14.387,17.223,25.652C473.844,73.218,457.648,127.373,360.193,236.374z"/>
	</g>
</g>
<g>
</g>
<g>
</g>
<g>
</g>
<g>
</g>
<g>
</g>
<g>
</g>
<g>
</g>
<g>
</g>
<g>
</g>
<g>
</g>
<g>
</g>
<g>
</g>
<g>
</g>
<g>
</g>
<g>
</g>
</svg>
