<?xml version="1.0" encoding="utf-8"?>
<!-- Generator: Adobe Illustrator 21.1.0, SVG Export Plug-In . SVG Version: 6.00 Build 0)  -->
<svg version="1.1" id="Capa_1" xmlns="http://www.w3.org/2000/svg" xmlns:xlink="http://www.w3.org/1999/xlink" x="0px" y="0px"
	 viewBox="0 0 512 512" style="enable-background:new 0 0 512 512;" xml:space="preserve">
<style type="text/css">
	.st0{fill:#FC3846;}
</style>
<g>
	<path class="st0" d="M256,0C167.6,0,96,71.6,96,160c0,23.9,5.2,46.6,14.6,66.9l121.9,264.5c5.8,12.7,14.2,20.7,23.5,20.7
		c9.3,0,17.7-7.9,23.5-20.6l121.9-264.5c9.4-20.3,14.6-43,14.6-66.9C416,71.6,344.4,0,256,0z M256,256c-53,0-96-43-96-96
		s43-96,96-96s96,43,96,96S309,256,256,256z"/>
</g>
</svg>
